# xmcd
#
# Track frame offsets:
#	150
#	15190
#	28945
#	42650
#	56897
#	68912
#	85732
#	104280
#	118010
#	135642
#	149420
#	166490
#	177890
#	197565
#	214905
#	231325
#	244785
#	262450
#	274420
#	295400
#
# Disc length: 4150 seconds
#
# Revision: 0
# Processed by: cddbd v1.5.2PL0 Copyright (c) Steve Scherf et al.
# Submitted via: audiograbber 1.83.01
#
DISCID=3e103414
DTITLE=Various Artist - John Laws Country Collection
DYEAR=1992
DGENRE=Country
TTITLE0=Willie Nelson - Nothing I Can Do About It Now
TTITLE1=Merle Haggard - Wouldn't That Be Something
TTITLE2=Lefty Frizzell - I Want To Be With You Always
TTITLE3=Lacy J. Dalton - 16th Avenue
TTITLE4=Eddy Arnold - Make The World Go Away
TTITLE5=The Oak Ridge Boys - Elvira
TTITLE6=Don Williams - I Believe In You
TTITLE7=Ricky Van Shelton - I Meant Every Word He Said
TTITLE8=Ricky Scaggs - Life's Too Long (To Live Like This)
TTITLE9=Hugh Moffatt - Rose Of My Heart
TTITLE10=Waylon Jennings and Barbara Mandrell - Angels Love Bad Men
TTITLE11=John Conlee - Busted
TTITLE12=Don McLean - To Have And To Hold
TTITLE13=Jack Clement - When I Dream
TTITLE14=Willie Nelson and Waylon Jennings - Old Age And Treachery
TTITLE15=Johnny Cash - Tennessee Flat-Top Box
TTITLE16=Marty Robbins - Big Iron
TTITLE17=John Williamson - The Shed
TTITLE18=Tompall and The Glaser Brothers - Maria Consuela
TTITLE19=Ed Bruce - Everything's A Waltz
EXTD=
EXTT0=
EXTT1=
EXTT2=
EXTT3=
EXTT4=
EXTT5=
EXTT6=
EXTT7=
EXTT8=
EXTT9=
EXTT10=
EXTT11=
EXTT12=
EXTT13=
EXTT14=
EXTT15=
EXTT16=
EXTT17=
EXTT18=
EXTT19=
PLAYORDER=
